<svg width="27000000" height="6400000" viewBox="0 0 135 32" fill="none" xmlns="http://www.w3.org/2000/svg">
<path d="M28.89 0L29.214 0.108C29.7828 0.246829 30.2887 0.572254 30.6509 1.03231C31.013 1.49236 31.2106 2.0605 31.212 2.646V28.62C31.2122 28.9709 31.1418 29.3182 31.0052 29.6413C30.8685 29.9645 30.6683 30.2569 30.4165 30.5011C30.1647 30.7454 29.8663 30.9366 29.5391 31.0634C29.212 31.1901 28.8627 31.2498 28.512 31.239H2.862C1.323 31.239 0.432 30.564 0.054 29.079L0 29.052V2.214L0.108 1.944C0.235202 1.48315 0.486124 1.0659 0.833566 0.737498C1.18101 0.409093 1.61172 0.182057 2.079 0.081L2.403 0H28.89ZM3.429 24.732L3.537 24.462C4.22868 22.4448 5.41344 20.6325 6.98363 19.1896C8.55382 17.7467 10.4597 16.719 12.528 16.2C14.824 15.6373 17.2049 15.5091 19.548 15.822C22.3661 16.1174 25.109 16.9129 27.648 18.171L27.891 18.252L27.945 18.198L26.73 16.74C26.6368 16.6038 26.581 16.4455 26.568 16.281C26.5534 15.7747 26.5083 15.2698 26.433 14.769C26.2431 14.0662 25.9035 13.4128 25.4375 12.8536C24.9715 12.2943 24.39 11.8425 23.733 11.529C21.9131 10.6051 19.9137 10.0892 17.874 10.017C17.7343 10.0254 17.5947 9.99754 17.469 9.936C16.4097 9.18143 15.172 8.71612 13.878 8.586C13.1326 8.48964 12.3769 8.50785 11.637 8.64C12.717 8.91 14.31 9.882 14.607 10.476H14.58C13.0391 10.7601 11.571 11.3511 10.263 12.2138C8.95505 13.0766 7.83383 14.1934 6.966 15.498C5.73468 17.311 4.79622 19.3064 4.185 21.411C3.834 22.491 3.456 23.571 3.456 24.732H3.429Z" fill="#B0283C"/>
<path d="M2.40204 0L2.07817 0.0809676C1.61107 0.181984 1.18054 0.408929 0.833233 0.737203C0.485929 1.06548 0.235108 1.48255 0.107957 1.94322L0 2.21311V0H2.40204Z" fill="#FEFEFE"/>
<path d="M41.04 12.3119V6.20993C41.032 6.09441 41.0489 5.97851 41.0895 5.87006C41.1301 5.76161 41.1935 5.66312 41.2753 5.58124C41.3572 5.49936 41.4557 5.43598 41.5642 5.39539C41.6726 5.3548 41.7885 5.33793 41.904 5.34593H46.494C47.6071 5.33702 48.71 5.55761 49.734 5.99393C50.7576 6.42125 51.648 7.11491 52.3127 8.00282C52.9775 8.89072 53.3923 9.94046 53.514 11.0429C53.7423 12.3382 53.6212 13.671 53.163 14.9039C52.772 16.0011 52.0864 16.9695 51.1816 17.7029C50.2767 18.4363 49.1874 18.9065 48.033 19.0619C47.4624 19.1627 46.8845 19.2168 46.305 19.2239H41.85C41.7413 19.224 41.6338 19.2022 41.5337 19.1598C41.4336 19.1174 41.3431 19.0553 41.2675 18.9772C41.1919 18.8991 41.1328 18.8066 41.0938 18.7052C41.0547 18.6038 41.0364 18.4955 41.04 18.3869C41.004 16.3529 40.995 14.3189 41.013 12.2849L41.04 12.3119ZM43.389 17.1179H46.359C48.924 17.0909 51.408 15.3359 51.219 11.9879C51.1926 11.0228 50.8589 10.0912 50.2665 9.32881C49.674 8.56641 48.8538 8.01294 47.925 7.74893C46.44 7.31693 44.901 7.61393 43.389 7.47893V17.1179Z" fill="#2C2B2A"/>
<path d="M93.582 12.096C93.6315 10.3387 94.3337 8.66272 95.5517 7.39487C96.7696 6.12702 98.416 5.35812 100.17 5.23803C101.559 5.05204 102.971 5.28093 104.23 5.89589C105.489 6.51086 106.537 7.48441 107.244 8.69403C107.83 9.65607 108.176 10.745 108.253 11.8689C108.329 12.9928 108.134 14.1186 107.684 15.1512C107.234 16.1838 106.542 17.093 105.666 17.8019C104.791 18.5108 103.758 18.9985 102.654 19.224C101.094 19.6248 99.4455 19.4978 97.9655 18.8628C96.4855 18.2278 95.2574 17.1206 94.473 15.714C93.8746 14.6039 93.5768 13.3567 93.609 12.096H93.582ZM100.98 7.45203C100.342 7.45026 99.7094 7.57421 99.1191 7.81681C98.5288 8.05941 97.992 8.41591 97.5395 8.86595C97.0869 9.31599 96.7275 9.85075 96.4816 10.4397C96.2357 11.0287 96.1082 11.6603 96.1065 12.2985C96.1047 12.9368 96.2286 13.5691 96.4712 14.1594C96.7138 14.7497 97.0703 15.2865 97.5204 15.739C97.9704 16.1916 98.5052 16.551 99.0942 16.7969C99.6831 17.0428 100.315 17.1703 100.953 17.172C101.596 17.1867 102.236 17.0712 102.834 16.8325C103.432 16.5938 103.975 16.2368 104.432 15.7829C104.888 15.329 105.248 14.7876 105.49 14.1912C105.732 13.5948 105.851 12.9556 105.84 12.312C105.851 11.6708 105.733 11.0339 105.492 10.4393C105.252 9.8447 104.894 9.30457 104.441 8.85107C103.987 8.39758 103.447 8.04 102.853 7.79964C102.258 7.55929 101.621 7.44107 100.98 7.45203V7.45203Z" fill="#A12C3A"/>
<path d="M71.199 9.18007L69.39 13.0411L66.825 18.6301C66.7597 18.817 66.6341 18.9769 66.4678 19.0844C66.3016 19.192 66.1043 19.2411 65.907 19.2241C65.7277 19.202 65.5463 19.202 65.367 19.2241C64.908 19.3051 64.665 19.0351 64.53 18.6571C64.4852 18.4558 64.514 18.2451 64.611 18.0631L68.769 8.99107L70.227 5.80507C70.3204 5.63627 70.4573 5.49556 70.6235 5.39758C70.7897 5.2996 70.9791 5.24792 71.172 5.24792C71.3649 5.24792 71.5543 5.2996 71.7205 5.39758C71.8867 5.49556 72.0236 5.63627 72.117 5.80507L77.787 18.0901C77.8575 18.2105 77.8933 18.3482 77.8904 18.4878C77.8875 18.6273 77.846 18.7633 77.7705 18.8808C77.695 18.9982 77.5885 19.0924 77.4627 19.153C77.3369 19.2136 77.1969 19.2382 77.058 19.2241H76.437C76.239 19.2461 76.0394 19.199 75.8721 19.0908C75.7048 18.9825 75.58 18.8198 75.519 18.6301L72.63 12.3121L71.334 9.45007L71.199 9.12607V9.18007Z" fill="#2C2B2A"/>
<path d="M81.378 17.091V16.821C81.378 16.254 81.486 16.065 82.053 15.93C82.2135 15.9179 82.3738 15.9557 82.512 16.038C83.052 16.308 83.592 16.686 84.132 16.929C84.6418 17.1859 85.229 17.2437 85.779 17.091C86.1176 17.0164 86.4264 16.8433 86.6667 16.5934C86.9069 16.3436 87.0678 16.0281 87.129 15.687C87.2134 15.3383 87.1796 14.9715 87.033 14.6441C86.8864 14.3167 86.6353 14.0473 86.319 13.878L84.591 13.095L83.349 12.555C80.595 11.313 80.622 7.88396 82.566 6.26396C83.321 5.61389 84.271 5.23388 85.266 5.18396C85.4718 5.1835 85.6701 5.26139 85.8205 5.4018C85.971 5.54222 86.0623 5.73463 86.076 5.93996V6.61496C86.0796 6.72135 86.0622 6.8274 86.0248 6.92706C85.9874 7.02671 85.9307 7.11802 85.858 7.19575C85.7853 7.27349 85.698 7.33613 85.601 7.38009C85.5041 7.42405 85.3994 7.44847 85.293 7.45196C84.24 7.58696 83.565 8.26196 83.592 9.17996C83.5851 9.41396 83.6417 9.64547 83.7558 9.84989C83.8699 10.0543 84.0372 10.224 84.24 10.341C84.6782 10.5888 85.1288 10.8141 85.59 11.016L87.21 11.691C88.911 12.474 89.667 13.689 89.559 15.579C89.451 17.334 88.479 18.468 86.913 19.116C86.3196 19.3418 85.6875 19.4485 85.0528 19.43C84.4181 19.4115 83.7933 19.2681 83.214 19.008C82.782 18.846 82.404 18.603 81.972 18.414C81.7634 18.3304 81.5903 18.1771 81.482 17.9802C81.3737 17.7832 81.3369 17.5549 81.378 17.334C81.3828 17.253 81.3828 17.1719 81.378 17.091V17.091ZM115.236 13.095V18.414C115.248 18.5257 115.235 18.6386 115.199 18.7451C115.164 18.8516 115.105 18.9492 115.029 19.0311C114.952 19.1131 114.858 19.1775 114.754 19.2201C114.65 19.2627 114.538 19.2824 114.426 19.278H113.805C113.238 19.278 112.941 18.954 112.941 18.36V6.23696C112.933 6.12144 112.95 6.00554 112.99 5.89709C113.031 5.78864 113.094 5.69015 113.176 5.60827C113.258 5.52639 113.357 5.46302 113.465 5.42242C113.574 5.38183 113.69 5.36497 113.805 5.37296H119.853C120.42 5.37296 120.744 5.66996 120.717 6.23696C120.717 6.58796 120.879 7.01996 120.474 7.28996C120.307 7.40983 120.112 7.48425 119.907 7.50596H115.263V10.935H119.421C119.627 10.9417 119.822 11.0264 119.967 11.1718C120.113 11.3172 120.197 11.5124 120.204 11.718V12.258C120.204 12.3666 120.182 12.4742 120.14 12.5743C120.098 12.6744 120.035 12.7649 119.957 12.8405C119.879 12.9161 119.787 12.9751 119.685 13.0142C119.584 13.0533 119.476 13.0716 119.367 13.068H115.236V13.095ZM130.329 7.50596V18.306C130.329 18.981 130.059 19.251 129.384 19.251H128.871C128.754 19.2638 128.636 19.2503 128.526 19.2114C128.415 19.1725 128.315 19.1093 128.232 19.0263C128.149 18.9434 128.085 18.8429 128.047 18.7322C128.008 18.6215 127.994 18.5036 128.007 18.387V7.50596H124.119C123.909 7.50608 123.707 7.42446 123.556 7.27834C123.404 7.13223 123.316 6.93307 123.309 6.72296V6.18296C123.305 6.07557 123.324 5.96856 123.363 5.86858C123.402 5.7686 123.462 5.6778 123.538 5.60181C123.614 5.52583 123.705 5.46631 123.805 5.42693C123.905 5.38756 124.012 5.36919 124.119 5.37296H134.19C134.405 5.37296 134.611 5.4583 134.763 5.61021C134.915 5.76211 135 5.96814 135 6.18296V6.72296C135 6.93779 134.915 7.14381 134.763 7.29572C134.611 7.44762 134.405 7.53296 134.19 7.53296H130.68L130.329 7.50596Z" fill="#A12C3A"/>
<path d="M58.32 12.285V6.20998C58.312 6.098 58.3281 5.9856 58.3673 5.88041C58.4066 5.77522 58.4679 5.67969 58.5473 5.60031C58.6267 5.52092 58.7222 5.45954 58.8274 5.42031C58.9326 5.38109 59.045 5.36495 59.157 5.37298H59.778C59.8935 5.36498 60.0094 5.38185 60.1179 5.42244C60.2263 5.46303 60.3248 5.52641 60.4067 5.60829C60.4886 5.69017 60.5519 5.78866 60.5925 5.89711C60.6331 6.00556 60.65 6.12145 60.642 6.23698V18.387C60.65 18.5025 60.6331 18.6184 60.5925 18.7268C60.5519 18.8353 60.4886 18.9338 60.4067 19.0157C60.3248 19.0975 60.2263 19.1609 60.1179 19.2015C60.0094 19.2421 59.8935 19.259 59.778 19.251H59.184C59.0685 19.259 58.9526 19.2421 58.8441 19.2015C58.7357 19.1609 58.6372 19.0975 58.5553 19.0157C58.4734 18.9338 58.4101 18.8353 58.3695 18.7268C58.3289 18.6184 58.312 18.5025 58.32 18.387V12.285ZM71.199 19.251H69.39C69.2701 19.2461 69.1531 19.2127 69.0486 19.1536C68.9442 19.0945 68.8553 19.0114 68.7893 18.9111C68.7234 18.8109 68.6822 18.6963 68.6693 18.577C68.6564 18.4577 68.672 18.337 68.715 18.225L68.985 17.604C69.0522 17.4484 69.1665 17.3179 69.3118 17.2307C69.4571 17.1435 69.6261 17.1041 69.795 17.118H72.603C72.7719 17.1041 72.9409 17.1435 73.0862 17.2307C73.2315 17.3179 73.3458 17.4484 73.413 17.604L73.602 18.036C73.7091 18.1751 73.7602 18.3493 73.7452 18.5242C73.7302 18.6992 73.6502 18.8621 73.521 18.981C73.3862 19.1274 73.205 19.2227 73.008 19.251H71.199Z" fill="#2C2B2A"/>
<path d="M42.1626 26.5415C42.1894 26.546 42.2273 26.5505 42.2765 26.5549C42.3257 26.5594 42.3815 26.5639 42.4441 26.5683C42.5066 26.5683 42.5714 26.5706 42.6384 26.575C42.7099 26.575 42.777 26.575 42.8395 26.575C42.9691 26.575 43.092 26.5661 43.2082 26.5482C43.3288 26.5304 43.4316 26.4991 43.5165 26.4544C43.6059 26.4097 43.6751 26.3516 43.7243 26.2801C43.7779 26.2042 43.8047 26.1081 43.8047 25.9919C43.8047 25.8802 43.7801 25.7886 43.731 25.7171C43.6863 25.6411 43.6237 25.5808 43.5433 25.5361C43.4629 25.4914 43.3668 25.4602 43.2551 25.4423C43.1479 25.4244 43.0317 25.4155 42.9066 25.4155H42.1626V26.5415ZM42.8261 24.953C42.9468 24.953 43.0562 24.9463 43.1546 24.9329C43.2573 24.915 43.3445 24.886 43.416 24.8457C43.4919 24.8055 43.55 24.7519 43.5902 24.6849C43.6349 24.6179 43.6573 24.533 43.6573 24.4302C43.6573 24.3229 43.6304 24.238 43.5768 24.1755C43.5232 24.1129 43.4517 24.066 43.3623 24.0347C43.2774 23.999 43.1791 23.9766 43.0674 23.9677C42.9602 23.9543 42.8507 23.9476 42.739 23.9476C42.6362 23.9476 42.5312 23.9498 42.424 23.9543C42.3212 23.9588 42.2341 23.9632 42.1626 23.9677V24.953H42.8261ZM42.8127 27.071C42.5491 27.071 42.3055 27.0576 42.0821 27.0308C41.8587 27.0085 41.6822 26.9817 41.5526 26.9504V23.5588C41.6822 23.5276 41.8587 23.5007 42.0821 23.4784C42.3055 23.4516 42.5491 23.4382 42.8127 23.4382C42.9959 23.4382 43.1747 23.4538 43.3489 23.4851C43.5232 23.5164 43.6774 23.57 43.8114 23.646C43.9455 23.7175 44.0527 23.818 44.1331 23.9476C44.218 24.0727 44.2605 24.2291 44.2605 24.4168C44.2605 24.5866 44.218 24.7318 44.1331 24.8524C44.0482 24.9731 43.9343 25.0669 43.7913 25.134C43.9835 25.201 44.1354 25.3015 44.2471 25.4356C44.3633 25.5652 44.4214 25.7484 44.4214 25.9852C44.4214 26.1952 44.3789 26.3695 44.294 26.508C44.2136 26.6465 44.0996 26.7582 43.9522 26.8431C43.8092 26.928 43.6394 26.9861 43.4428 27.0174C43.2462 27.0532 43.0361 27.071 42.8127 27.071Z" fill="#111111"/>
<path d="M48.5492 27.0911C48.2677 27.0911 48.0197 27.0465 47.8052 26.9571C47.5952 26.8677 47.4165 26.7426 47.269 26.5817C47.126 26.4209 47.0188 26.231 46.9473 26.012C46.8758 25.7886 46.84 25.5428 46.84 25.2747C46.84 25.0066 46.878 24.7608 46.954 24.5374C47.0344 24.314 47.1461 24.1219 47.2891 23.961C47.4321 23.7957 47.6064 23.6683 47.8119 23.5789C48.0219 23.4851 48.2543 23.4382 48.509 23.4382C48.6654 23.4382 48.8218 23.4516 48.9782 23.4784C49.1346 23.5052 49.2843 23.5477 49.4273 23.6057L49.2865 24.1353C49.1927 24.0906 49.0832 24.0548 48.9581 24.028C48.8374 24.0012 48.7078 23.9878 48.5693 23.9878C48.2208 23.9878 47.9527 24.0973 47.765 24.3162C47.5818 24.5352 47.4902 24.8547 47.4902 25.2747C47.4902 25.4624 47.5103 25.6344 47.5505 25.7908C47.5952 25.9472 47.6622 26.0813 47.7516 26.193C47.8454 26.3047 47.9638 26.3918 48.1068 26.4544C48.2498 26.5125 48.4241 26.5415 48.6296 26.5415C48.795 26.5415 48.9447 26.5259 49.0787 26.4946C49.2128 26.4633 49.3178 26.4298 49.3938 26.3941L49.4809 26.9169C49.4451 26.9392 49.3938 26.9616 49.3267 26.9839C49.2597 27.0018 49.1837 27.0174 49.0988 27.0308C49.0139 27.0487 48.9223 27.0621 48.824 27.071C48.7302 27.0844 48.6386 27.0911 48.5492 27.0911Z" fill="#111111"/>
<path d="M51.7655 25.2747C51.7655 24.9664 51.8101 24.6983 51.8995 24.4704C51.9889 24.238 52.1073 24.0459 52.2547 23.894C52.4022 23.742 52.572 23.6281 52.7642 23.5521C52.9563 23.4762 53.1529 23.4382 53.354 23.4382C53.8232 23.4382 54.1829 23.5856 54.4331 23.8806C54.6834 24.171 54.8085 24.6156 54.8085 25.2144C54.8085 25.2412 54.8085 25.2769 54.8085 25.3216C54.8085 25.3619 54.8062 25.3998 54.8018 25.4356H52.4156C52.4424 25.7975 52.5474 26.0723 52.7306 26.26C52.9138 26.4477 53.1998 26.5415 53.5886 26.5415C53.8075 26.5415 53.9907 26.5236 54.1382 26.4879C54.2901 26.4477 54.4041 26.4097 54.48 26.374L54.5672 26.8968C54.4912 26.937 54.3572 26.9794 54.165 27.0241C53.9773 27.0688 53.7629 27.0911 53.5216 27.0911C53.2177 27.0911 52.9541 27.0465 52.7306 26.9571C52.5117 26.8633 52.3307 26.7359 52.1877 26.575C52.0447 26.4142 51.9375 26.2243 51.866 26.0053C51.799 25.7819 51.7655 25.5384 51.7655 25.2747ZM54.1583 24.9329C54.1628 24.6514 54.0913 24.4212 53.9438 24.2425C53.8008 24.0593 53.602 23.9677 53.3473 23.9677C53.2043 23.9677 53.0769 23.9967 52.9652 24.0548C52.858 24.1084 52.7664 24.1799 52.6904 24.2693C52.6145 24.3587 52.5541 24.4615 52.5095 24.5776C52.4692 24.6938 52.4424 24.8122 52.429 24.9329H54.1583ZM52.7038 22.8819C52.6011 22.8819 52.5095 22.8461 52.429 22.7746C52.3531 22.6987 52.3151 22.6026 52.3151 22.4864C52.3151 22.3702 52.3531 22.2764 52.429 22.2049C52.5095 22.1289 52.6011 22.0909 52.7038 22.0909C52.8066 22.0909 52.896 22.1289 52.9719 22.2049C53.0524 22.2764 53.0926 22.3702 53.0926 22.4864C53.0926 22.6026 53.0524 22.6987 52.9719 22.7746C52.896 22.8461 52.8066 22.8819 52.7038 22.8819ZM53.9773 22.8819C53.8746 22.8819 53.783 22.8461 53.7025 22.7746C53.6266 22.6987 53.5886 22.6026 53.5886 22.4864C53.5886 22.3702 53.6266 22.2764 53.7025 22.2049C53.783 22.1289 53.8746 22.0909 53.9773 22.0909C54.0801 22.0909 54.1695 22.1289 54.2454 22.2049C54.3259 22.2764 54.3661 22.3702 54.3661 22.4864C54.3661 22.6026 54.3259 22.6987 54.2454 22.7746C54.1695 22.8461 54.0801 22.8819 53.9773 22.8819Z" fill="#111111"/>
<path d="M63.6764 27.0107H63.053V24.0481H61.498V27.0107H60.8747V23.5253H63.6764V27.0107Z" fill="#111111"/>
<path d="M69.6359 25.268C69.6359 25.5451 69.5957 25.7953 69.5152 26.0187C69.4348 26.2421 69.3209 26.4343 69.1734 26.5951C69.0304 26.756 68.8584 26.8811 68.6573 26.9705C68.4562 27.0554 68.2373 27.0978 68.0004 27.0978C67.7636 27.0978 67.5447 27.0554 67.3436 26.9705C67.1425 26.8811 66.9682 26.756 66.8208 26.5951C66.6778 26.4343 66.5661 26.2421 66.4856 26.0187C66.4052 25.7953 66.365 25.5451 66.365 25.268C66.365 24.9954 66.4052 24.7474 66.4856 24.524C66.5661 24.2961 66.6778 24.1017 66.8208 23.9409C66.9682 23.78 67.1425 23.6571 67.3436 23.5722C67.5447 23.4829 67.7636 23.4382 68.0004 23.4382C68.2373 23.4382 68.4562 23.4829 68.6573 23.5722C68.8584 23.6571 69.0304 23.78 69.1734 23.9409C69.3209 24.1017 69.4348 24.2961 69.5152 24.524C69.5957 24.7474 69.6359 24.9954 69.6359 25.268ZM68.9857 25.268C68.9857 24.8748 68.8964 24.5642 68.7176 24.3363C68.5434 24.104 68.3043 23.9878 68.0004 23.9878C67.6966 23.9878 67.4553 24.104 67.2766 24.3363C67.1023 24.5642 67.0152 24.8748 67.0152 25.268C67.0152 25.6612 67.1023 25.974 67.2766 26.2064C67.4553 26.4343 67.6966 26.5482 68.0004 26.5482C68.3043 26.5482 68.5434 26.4343 68.7176 26.2064C68.8964 25.974 68.9857 25.6612 68.9857 25.268Z" fill="#111111"/>
<path d="M72.0785 24.7117H73.7341V25.2948H72.0785V24.7117Z" fill="#111111"/>
<path d="M79.1085 27.0107H78.4851V25.4691H76.8765V27.0107H76.2531V23.5253H76.8765V24.9463H78.4851V23.5253H79.1085V27.0107Z" fill="#111111"/>
<path d="M83.1699 26.5616C83.3173 26.5616 83.4469 26.5594 83.5586 26.5549C83.6748 26.546 83.7709 26.5326 83.8468 26.5147V25.4758C83.8021 25.4535 83.7284 25.4356 83.6256 25.4222C83.5273 25.4043 83.4067 25.3954 83.2637 25.3954C83.1699 25.3954 83.0693 25.4021 82.9621 25.4155C82.8593 25.4289 82.7632 25.4579 82.6739 25.5026C82.589 25.5428 82.5175 25.6009 82.4594 25.6769C82.4013 25.7484 82.3722 25.8444 82.3722 25.9651C82.3722 26.1885 82.4437 26.3449 82.5867 26.4343C82.7297 26.5192 82.9241 26.5616 83.1699 26.5616ZM83.1162 23.4382C83.3665 23.4382 83.5765 23.4717 83.7463 23.5387C83.9206 23.6013 84.0591 23.6929 84.1619 23.8135C84.2691 23.9297 84.3451 24.0705 84.3898 24.2358C84.4344 24.3967 84.4568 24.5754 84.4568 24.772V26.9504C84.4032 26.9593 84.3272 26.9727 84.2289 26.9906C84.1351 27.004 84.0278 27.0174 83.9072 27.0308C83.7865 27.0442 83.6547 27.0554 83.5117 27.0643C83.3732 27.0777 83.2347 27.0844 83.0961 27.0844C82.8995 27.0844 82.7186 27.0643 82.5532 27.0241C82.3879 26.9839 82.2449 26.9213 82.1242 26.8364C82.0036 26.7471 81.9098 26.6309 81.8427 26.4879C81.7757 26.3449 81.7422 26.1729 81.7422 25.9718C81.7422 25.7797 81.7802 25.6143 81.8561 25.4758C81.9366 25.3373 82.0438 25.2256 82.1779 25.1407C82.3119 25.0558 82.4683 24.9932 82.6471 24.953C82.8258 24.9128 83.0135 24.8927 83.2101 24.8927C83.2726 24.8927 83.3374 24.8971 83.4045 24.9061C83.4715 24.9105 83.534 24.9195 83.5921 24.9329C83.6547 24.9418 83.7083 24.9508 83.753 24.9597C83.7977 24.9686 83.829 24.9753 83.8468 24.9798V24.8055C83.8468 24.7028 83.8357 24.6022 83.8133 24.5039C83.791 24.4011 83.7508 24.3118 83.6927 24.2358C83.6346 24.1554 83.5542 24.0928 83.4514 24.0481C83.3531 23.999 83.2235 23.9744 83.0626 23.9744C82.8571 23.9744 82.6761 23.99 82.5197 24.0213C82.3678 24.0481 82.2538 24.0772 82.1779 24.1084L82.1041 23.5923C82.1846 23.5566 82.3186 23.5231 82.5063 23.4918C82.694 23.4561 82.8973 23.4382 83.1162 23.4382Z" fill="#111111"/>
<path d="M88.8166 27.0911C88.5351 27.0911 88.2871 27.0465 88.0726 26.9571C87.8626 26.8677 87.6839 26.7426 87.5364 26.5817C87.3934 26.4209 87.2862 26.231 87.2147 26.012C87.1432 25.7886 87.1074 25.5428 87.1074 25.2747C87.1074 25.0066 87.1454 24.7608 87.2214 24.5374C87.3018 24.314 87.4135 24.1219 87.5565 23.961C87.6995 23.7957 87.8738 23.6683 88.0793 23.5789C88.2893 23.4851 88.5217 23.4382 88.7764 23.4382C88.9328 23.4382 89.0892 23.4516 89.2456 23.4784C89.402 23.5052 89.5517 23.5477 89.6947 23.6057L89.5539 24.1353C89.4601 24.0906 89.3506 24.0548 89.2255 24.028C89.1048 24.0012 88.9752 23.9878 88.8367 23.9878C88.4882 23.9878 88.2201 24.0973 88.0324 24.3162C87.8492 24.5352 87.7576 24.8547 87.7576 25.2747C87.7576 25.4624 87.7777 25.6344 87.8179 25.7908C87.8626 25.9472 87.9296 26.0813 88.019 26.193C88.1128 26.3047 88.2312 26.3918 88.3742 26.4544C88.5172 26.5125 88.6915 26.5415 88.897 26.5415C89.0624 26.5415 89.2121 26.5259 89.3461 26.4946C89.4802 26.4633 89.5852 26.4298 89.6611 26.3941L89.7483 26.9169C89.7125 26.9392 89.6611 26.9616 89.5941 26.9839C89.5271 27.0018 89.4511 27.0174 89.3662 27.0308C89.2813 27.0487 89.1897 27.0621 89.0914 27.071C88.9976 27.0844 88.906 27.0911 88.8166 27.0911Z" fill="#111111"/>
<path d="M94.7853 23.5253V24.0481H93.6525V27.0107H93.0292V24.0481H91.8964V23.5253H94.7853Z" fill="#111111"/>
<path d="M100.314 25.268C100.314 25.5451 100.274 25.7953 100.194 26.0187C100.113 26.2421 99.9992 26.4343 99.8518 26.5951C99.7088 26.756 99.5368 26.8811 99.3357 26.9705C99.1346 27.0554 98.9156 27.0978 98.6788 27.0978C98.442 27.0978 98.223 27.0554 98.022 26.9705C97.8209 26.8811 97.6466 26.756 97.4991 26.5951C97.3562 26.4343 97.2444 26.2421 97.164 26.0187C97.0836 25.7953 97.0434 25.5451 97.0434 25.268C97.0434 24.9954 97.0836 24.7474 97.164 24.524C97.2444 24.2961 97.3562 24.1017 97.4991 23.9409C97.6466 23.78 97.8209 23.6571 98.022 23.5722C98.223 23.4829 98.442 23.4382 98.6788 23.4382C98.9156 23.4382 99.1346 23.4829 99.3357 23.5722C99.5368 23.6571 99.7088 23.78 99.8518 23.9409C99.9992 24.1017 100.113 24.2961 100.194 24.524C100.274 24.7474 100.314 24.9954 100.314 25.268ZM99.6641 25.268C99.6641 24.8748 99.5747 24.5642 99.396 24.3363C99.2217 24.104 98.9827 23.9878 98.6788 23.9878C98.375 23.9878 98.1337 24.104 97.9549 24.3363C97.7807 24.5642 97.6935 24.8748 97.6935 25.268C97.6935 25.6612 97.7807 25.974 97.9549 26.2064C98.1337 26.4343 98.375 26.5482 98.6788 26.5482C98.9827 26.5482 99.2217 26.4343 99.396 26.2064C99.5747 25.974 99.6641 25.6612 99.6641 25.268Z" fill="#111111"/>
<path d="M104.442 25.6568C104.375 25.6568 104.31 25.6568 104.248 25.6568C104.185 25.6523 104.125 25.6478 104.067 25.6434C103.924 25.8578 103.785 26.088 103.651 26.3337C103.522 26.575 103.405 26.8007 103.303 27.0107H102.673C102.726 26.8811 102.789 26.7493 102.86 26.6153C102.932 26.4767 103.003 26.3427 103.075 26.2131C103.151 26.0835 103.227 25.9606 103.303 25.8444C103.379 25.7283 103.45 25.6233 103.517 25.5294C103.392 25.4847 103.289 25.4311 103.209 25.3686C103.128 25.3015 103.064 25.2278 103.014 25.1474C102.965 25.0669 102.93 24.982 102.907 24.8927C102.889 24.7988 102.88 24.705 102.88 24.6111C102.88 24.4145 102.916 24.2425 102.988 24.095C103.064 23.9476 103.166 23.8269 103.296 23.7331C103.425 23.6348 103.577 23.5611 103.752 23.5119C103.93 23.4628 104.125 23.4382 104.335 23.4382C104.63 23.4382 104.88 23.4516 105.086 23.4784C105.291 23.5052 105.463 23.5365 105.602 23.5722V27.0107H104.985V25.6568H104.442ZM104.985 23.9878C104.936 23.9789 104.853 23.9699 104.737 23.961C104.625 23.9521 104.496 23.9476 104.348 23.9476C104.094 23.9476 103.888 24.0012 103.732 24.1084C103.575 24.2112 103.497 24.3766 103.497 24.6044C103.497 24.8279 103.577 24.982 103.738 25.0669C103.899 25.1518 104.107 25.1943 104.362 25.1943H104.985V23.9878Z" fill="#111111"/>
<path d="M108.483 27.0107V23.5253H109.106V26.4946H110.393V23.5253H111.016V26.4946H112.303V23.5253H112.927V26.4946H113.396V27.9826H112.806V27.0107H108.483Z" fill="#111111"/>
<path d="M115.688 25.2747C115.688 24.9664 115.733 24.6983 115.822 24.4704C115.911 24.238 116.03 24.0459 116.177 23.894C116.325 23.742 116.495 23.6281 116.687 23.5521C116.879 23.4762 117.076 23.4382 117.277 23.4382C117.746 23.4382 118.105 23.5856 118.356 23.8806C118.606 24.171 118.731 24.6156 118.731 25.2144C118.731 25.2412 118.731 25.2769 118.731 25.3216C118.731 25.3619 118.729 25.3998 118.724 25.4356H116.338C116.365 25.7975 116.47 26.0723 116.653 26.26C116.836 26.4477 117.122 26.5415 117.511 26.5415C117.73 26.5415 117.913 26.5236 118.061 26.4879C118.213 26.4477 118.327 26.4097 118.403 26.374L118.49 26.8968C118.414 26.937 118.28 26.9794 118.088 27.0241C117.9 27.0688 117.685 27.0911 117.444 27.0911C117.14 27.0911 116.877 27.0465 116.653 26.9571C116.434 26.8633 116.253 26.7359 116.11 26.575C115.967 26.4142 115.86 26.2243 115.789 26.0053C115.722 25.7819 115.688 25.5384 115.688 25.2747ZM118.081 24.9329C118.085 24.6514 118.014 24.4212 117.866 24.2425C117.723 24.0593 117.525 23.9677 117.27 23.9677C117.127 23.9677 117 23.9967 116.888 24.0548C116.781 24.1084 116.689 24.1799 116.613 24.2693C116.537 24.3587 116.477 24.4615 116.432 24.5776C116.392 24.6938 116.365 24.8122 116.352 24.9329H118.081Z" fill="#111111"/>
<path d="M122.1 24.4436C122.055 24.886 122.022 25.3283 121.999 25.7707C121.977 26.2086 121.959 26.622 121.946 27.0107H121.349C121.358 26.7381 121.371 26.4544 121.389 26.1595C121.407 25.8601 121.427 25.5607 121.45 25.2613C121.472 24.9575 121.497 24.6603 121.523 24.3699C121.55 24.0749 121.579 23.7934 121.611 23.5253H122.18C122.323 23.7577 122.491 24.0772 122.683 24.4838C122.875 24.886 123.096 25.3507 123.347 25.878C123.597 25.3507 123.818 24.886 124.01 24.4838C124.202 24.0772 124.37 23.7577 124.513 23.5253H125.089C125.12 23.7934 125.15 24.0749 125.176 24.3699C125.203 24.6603 125.228 24.9575 125.25 25.2613C125.272 25.5607 125.293 25.8601 125.31 26.1595C125.328 26.4544 125.342 26.7381 125.351 27.0107H124.734C124.721 26.622 124.703 26.2086 124.68 25.7707C124.658 25.3283 124.624 24.886 124.58 24.4436C124.508 24.5821 124.426 24.7497 124.332 24.9463C124.238 25.1384 124.144 25.335 124.05 25.5361C123.961 25.7372 123.876 25.9293 123.796 26.1126C123.715 26.2958 123.653 26.441 123.608 26.5482H123.085C123.036 26.4365 122.969 26.2891 122.884 26.1058C122.804 25.9226 122.716 25.7305 122.623 25.5294C122.533 25.3239 122.442 25.125 122.348 24.9329C122.254 24.7363 122.171 24.5732 122.1 24.4436Z" fill="#111111"/>
<path d="M127.74 27.6609C127.789 27.6832 127.851 27.7033 127.927 27.7212C128.008 27.7435 128.086 27.7547 128.162 27.7547C128.408 27.7547 128.6 27.6989 128.738 27.5871C128.877 27.4799 129.002 27.3034 129.114 27.0576C128.832 26.5214 128.569 25.9539 128.323 25.3551C128.082 24.7519 127.881 24.142 127.72 23.5253H128.39C128.439 23.7264 128.497 23.9431 128.564 24.1755C128.636 24.4078 128.714 24.6469 128.799 24.8927C128.884 25.1384 128.975 25.3842 129.074 25.63C129.172 25.8757 129.275 26.1126 129.382 26.3404C129.552 25.8713 129.699 25.4065 129.824 24.9463C129.949 24.486 130.068 24.0124 130.18 23.5253H130.823C130.662 24.1822 130.483 24.8145 130.287 25.4222C130.09 26.0254 129.878 26.5907 129.65 27.118C129.561 27.319 129.467 27.4911 129.368 27.6341C129.275 27.7815 129.17 27.9022 129.053 27.996C128.937 28.0898 128.805 28.1591 128.658 28.2038C128.515 28.2485 128.352 28.2708 128.169 28.2708C128.12 28.2708 128.068 28.2663 128.015 28.2574C127.961 28.2529 127.907 28.244 127.854 28.2306C127.805 28.2217 127.758 28.2105 127.713 28.1971C127.673 28.1837 127.644 28.1725 127.626 28.1636L127.74 27.6609Z" fill="#111111"/>
</svg>
